# Blender v2.92.0 OBJ File: '1core_out.blend'
# www.blender.org
mtllib core_out.mtl
o 球_球.001
v -0.146447 0.923880 0.353554
v -0.270598 0.707107 0.653282
v -0.353553 0.382683 0.853554
v -0.382684 0.000000 0.923880
v -0.353553 -0.382683 0.853554
v -0.270598 -0.707107 0.653282
v -0.146447 -0.923880 0.353554
v -0.270598 0.923880 0.270598
v -0.500000 0.707107 0.500000
v -0.653281 0.382683 0.653282
v -0.707107 0.000000 0.707107
v -0.653281 -0.382683 0.653282
v -0.500000 -0.707107 0.500000
v -0.270598 -0.923880 0.270598
v -0.353553 0.923880 0.146447
v -0.653281 0.707107 0.270598
v -0.853553 0.382683 0.353554
v -0.923880 0.000000 0.382684
v -0.853553 -0.382683 0.353554
v -0.653281 -0.707107 0.270598
v -0.353553 -0.923880 0.146447
v -0.382683 0.923880 0.000000
v -0.707107 0.707107 0.000000
v -0.923879 0.382683 0.000000
v -1.000000 0.000000 0.000000
v -0.923879 -0.382683 0.000000
v -0.707107 -0.707107 0.000000
v -0.382683 -0.923880 0.000000
v -0.353553 0.923880 -0.146446
v -0.653281 0.707107 -0.270598
v -0.853553 0.382683 -0.353553
v -0.923879 0.000000 -0.382683
v -0.853553 -0.382683 -0.353553
v -0.653281 -0.707107 -0.270598
v -0.353553 -0.923880 -0.146446
v -0.270598 0.923880 -0.270598
v -0.500000 0.707107 -0.500000
v -0.653281 0.382683 -0.653281
v -0.707106 0.000000 -0.707106
v -0.653281 -0.382683 -0.653281
v -0.500000 -0.707107 -0.500000
v -0.270598 -0.923880 -0.270598
v -0.146447 0.923880 -0.353553
v -0.270598 0.707107 -0.653281
v -0.353553 0.382683 -0.853553
v -0.382683 0.000000 -0.923879
v -0.353553 -0.382683 -0.853553
v -0.270598 -0.707107 -0.653281
v -0.146446 -0.923880 -0.353553
v 0.000000 0.923880 -0.382683
v 0.000000 0.707107 -0.707107
v 0.000000 0.382683 -0.923880
v 0.000000 0.000000 -1.000000
v 0.000000 -1.000000 0.000000
v 0.000000 0.923880 0.382684
v 0.000000 0.707107 0.707107
v 0.000000 0.382683 0.923880
v 0.000000 0.000000 1.000000
v 0.000000 -0.382683 0.923880
v 0.000000 -0.707107 0.707107
v 0.000000 -0.923880 0.382684
v 0.146447 0.923880 0.353554
v 0.270598 0.707107 0.653282
v 0.353553 0.382683 0.853554
v 0.382684 0.000000 0.923880
v 0.353553 -0.382683 0.853554
v 0.270598 -0.707107 0.653282
v 0.146447 -0.923880 0.353554
v 0.000000 1.000000 0.000001
v 0.270598 0.923880 0.270598
v 0.500000 0.707107 0.500000
v 0.653281 0.382683 0.653282
v 0.707107 0.000000 0.707107
v 0.653281 -0.382683 0.653282
v 0.500000 -0.707107 0.500000
v 0.270598 -0.923880 0.270598
v 0.353553 0.923880 0.146447
v 0.653281 0.707107 0.270598
v 0.853553 0.382683 0.353554
v 0.923880 0.000000 0.382684
v 0.853553 -0.382683 0.353554
v 0.653281 -0.707107 0.270598
v 0.353553 -0.923880 0.146447
v 0.382683 0.923880 0.000000
v 0.707107 0.707107 0.000000
v 0.923879 0.382683 0.000000
v 1.000000 0.000000 0.000000
v 0.923879 -0.382683 0.000000
v 0.707107 -0.707107 0.000000
v 0.382683 -0.923880 0.000000
v 0.353553 0.923880 -0.146446
v 0.653281 0.707107 -0.270598
v 0.853553 0.382683 -0.353553
v 0.923879 0.000000 -0.382683
v 0.853553 -0.382683 -0.353553
v 0.653281 -0.707107 -0.270598
v 0.353553 -0.923880 -0.146446
v 0.270598 0.923880 -0.270598
v 0.500000 0.707107 -0.500000
v 0.653281 0.382683 -0.653281
v 0.707106 0.000000 -0.707106
v 0.653281 -0.382683 -0.653281
v 0.500000 -0.707107 -0.500000
v 0.270598 -0.923880 -0.270598
v 0.146447 0.923880 -0.353553
v 0.270598 0.707107 -0.653281
v 0.353553 0.382683 -0.853553
v 0.382683 0.000000 -0.923879
v 0.353553 -0.382683 -0.853553
v 0.270598 -0.707107 -0.653281
v 0.146446 -0.923880 -0.353553
v 0.000000 -0.382683 -0.923879
v 0.000000 -0.707107 -0.707106
v 0.000000 -0.923880 -0.382683
vt 0.140956 0.001901
vt 0.001901 0.140956
vt 0.140956 0.140956
vt 0.926670 0.569527
vt 0.859044 0.430473
vt 0.859044 0.569527
vt 0.283813 0.001901
vt 0.144758 0.140956
vt 0.283813 0.140956
vt 0.140956 0.998099
vt 0.140956 0.932374
vt 0.003802 0.998099
vt 0.283813 0.998099
vt 0.146659 0.998099
vt 0.283813 0.932374
vt 0.426670 0.926670
vt 0.287615 0.859044
vt 0.287615 0.926670
vt 0.001901 0.287615
vt 0.140956 0.426670
vt 0.140956 0.287615
vt 0.926670 0.283813
vt 0.859044 0.144758
vt 0.859044 0.283813
vt 0.287615 0.144758
vt 0.426670 0.283813
vt 0.426670 0.144758
vt 0.998099 0.146659
vt 0.932374 0.283813
vt 0.998099 0.283813
vt 0.144758 0.287615
vt 0.283813 0.426670
vt 0.283813 0.287615
vt 0.426670 0.287615
vt 0.287615 0.426670
vt 0.426670 0.426670
vt 0.712385 0.926670
vt 0.575231 0.926670
vt 0.712385 0.860945
vt 0.001901 0.430473
vt 0.140956 0.569527
vt 0.140956 0.430473
vt 0.140956 0.926670
vt 0.001901 0.859044
vt 0.001901 0.926670
vt 0.926670 0.140956
vt 0.859044 0.001901
vt 0.859044 0.140956
vt 0.430473 0.144758
vt 0.569527 0.283813
vt 0.569527 0.144758
vt 0.926670 0.718088
vt 0.860945 0.855242
vt 0.926670 0.855242
vt 0.287615 0.430473
vt 0.426670 0.569527
vt 0.426670 0.430473
vt 0.855242 0.855242
vt 0.716187 0.787615
vt 0.716187 0.855242
vt 0.855242 0.926670
vt 0.718088 0.926670
vt 0.855242 0.860945
vt 0.430473 0.430473
vt 0.569527 0.569527
vt 0.569527 0.430473
vt 0.140956 0.573330
vt 0.001901 0.712385
vt 0.140956 0.712385
vt 0.573330 0.001901
vt 0.712385 0.140956
vt 0.712385 0.001901
vt 0.573330 0.144758
vt 0.712385 0.283813
vt 0.712385 0.144758
vt 0.926670 0.575231
vt 0.860945 0.712385
vt 0.926670 0.712385
vt 0.144758 0.573330
vt 0.283813 0.712385
vt 0.283813 0.573330
vt 0.855242 0.573330
vt 0.787615 0.712385
vt 0.855242 0.712385
vt 0.573330 0.287615
vt 0.712385 0.426670
vt 0.712385 0.287615
vt 0.716187 0.783813
vt 0.855242 0.716187
vt 0.716187 0.716187
vt 0.932374 0.140956
vt 0.998099 0.003802
vt 0.998099 0.140956
vt 0.144758 0.996198
vt 0.144758 0.930473
vt 0.281912 0.930473
vt 0.569527 0.573330
vt 0.430473 0.712385
vt 0.569527 0.712385
vt 0.573330 0.573330
vt 0.712385 0.712385
vt 0.712385 0.573330
vt 0.783813 0.573330
vt 0.716187 0.712385
vt 0.783813 0.712385
vt 0.001901 0.716187
vt 0.140956 0.855242
vt 0.140956 0.716187
vt 0.573330 0.783813
vt 0.712385 0.716187
vt 0.573330 0.716187
vt 0.996198 0.144758
vt 0.930473 0.281912
vt 0.930473 0.144758
vt 0.139055 0.930473
vt 0.001901 0.930473
vt 0.001901 0.996198
vt 0.283813 0.716187
vt 0.144758 0.855242
vt 0.283813 0.855242
vt 0.783813 0.430473
vt 0.716187 0.569527
vt 0.783813 0.569527
vt 0.855242 0.287615
vt 0.716187 0.426670
vt 0.855242 0.426670
vt 0.430473 0.716187
vt 0.569527 0.855242
vt 0.569527 0.716187
vt 0.930473 0.139055
vt 0.930473 0.001901
vt 0.996198 0.001901
vt 0.426670 0.716187
vt 0.287615 0.855242
vt 0.426670 0.855242
vt 0.716187 0.144758
vt 0.855242 0.283813
vt 0.855242 0.144758
vt 0.855242 0.001901
vt 0.716187 0.140956
vt 0.855242 0.140956
vt 0.712385 0.855242
vt 0.573330 0.787615
vt 0.573330 0.855242
vt 0.716187 0.859044
vt 0.853341 0.859044
vt 0.716187 0.924769
vt 0.712385 0.430473
vt 0.573330 0.569527
vt 0.712385 0.569527
vt 0.855242 0.430473
vt 0.787615 0.569527
vt 0.855242 0.569527
vt 0.287615 0.573330
vt 0.426670 0.712385
vt 0.426670 0.573330
vt 0.430473 0.287615
vt 0.569527 0.426670
vt 0.569527 0.287615
vt 0.859044 0.853341
vt 0.859044 0.716187
vt 0.924769 0.716187
vt 0.144758 0.430473
vt 0.283813 0.569527
vt 0.283813 0.430473
vt 0.569527 0.001901
vt 0.430473 0.140956
vt 0.569527 0.140956
vt 0.283813 0.926670
vt 0.144758 0.859044
vt 0.144758 0.926670
vt 0.573330 0.859044
vt 0.710483 0.859044
vt 0.573330 0.924769
vt 0.426670 0.001901
vt 0.287615 0.140956
vt 0.426670 0.140956
vt 0.926670 0.287615
vt 0.859044 0.426670
vt 0.926670 0.426670
vt 0.144758 0.144758
vt 0.283813 0.283813
vt 0.283813 0.144758
vt 0.001901 0.144758
vt 0.140956 0.283813
vt 0.140956 0.144758
vt 0.569527 0.926670
vt 0.430473 0.859044
vt 0.430473 0.926670
vt 0.859044 0.710483
vt 0.859044 0.573330
vt 0.924769 0.573330
vt 0.001901 0.001901
vt 0.926670 0.430473
vt 0.144758 0.001901
vt 0.426670 0.859044
vt 0.001901 0.426670
vt 0.926670 0.144758
vt 0.287615 0.283813
vt 0.144758 0.426670
vt 0.287615 0.287615
vt 0.001901 0.569527
vt 0.140956 0.859044
vt 0.926670 0.001901
vt 0.430473 0.283813
vt 0.287615 0.569527
vt 0.855242 0.787615
vt 0.430473 0.569527
vt 0.001901 0.573330
vt 0.573330 0.140956
vt 0.573330 0.283813
vt 0.144758 0.712385
vt 0.787615 0.573330
vt 0.573330 0.426670
vt 0.855242 0.783813
vt 0.430473 0.573330
vt 0.573330 0.712385
vt 0.716187 0.573330
vt 0.001901 0.855242
vt 0.712385 0.783813
vt 0.144758 0.716187
vt 0.716187 0.430473
vt 0.716187 0.287615
vt 0.430473 0.855242
vt 0.287615 0.716187
vt 0.716187 0.283813
vt 0.716187 0.001901
vt 0.712385 0.787615
vt 0.573330 0.430473
vt 0.787615 0.430473
vt 0.287615 0.712385
vt 0.430473 0.426670
vt 0.144758 0.569527
vt 0.430473 0.001901
vt 0.283813 0.859044
vt 0.287615 0.001901
vt 0.859044 0.287615
vt 0.144758 0.283813
vt 0.001901 0.283813
vt 0.569527 0.859044
vn -0.1632 0.5481 0.8203
vn -0.1098 -0.8264 0.5522
vn -0.5453 0.1915 0.8161
vn -0.0388 0.9800 0.1949
vn -0.1104 -0.9800 0.1653
vn -0.3128 0.8264 0.4681
vn -0.4647 -0.5481 0.6954
vn -0.4681 -0.8264 0.3128
vn -0.8161 -0.1915 0.5453
vn -0.1653 0.9800 0.1104
vn -0.6954 0.5481 0.4647
vn -0.9626 0.1915 0.1915
vn -0.1949 -0.9800 0.0388
vn -0.9626 -0.1915 -0.1915
vn -0.4681 0.8264 -0.3128
vn -0.5522 0.8264 0.1098
vn -0.8203 -0.5481 0.1632
vn -0.1949 0.9800 -0.0388
vn -0.8203 0.5481 -0.1632
vn -0.5522 -0.8264 -0.1098
vn -0.1653 -0.9800 -0.1104
vn -0.5453 -0.1915 -0.8161
vn -0.6954 -0.5481 -0.4647
vn -0.8161 0.1915 -0.5453
vn -0.1632 -0.5481 -0.8203
vn -0.1104 0.9800 -0.1653
vn -0.4647 0.5481 -0.6954
vn -0.3128 -0.8264 -0.4681
vn -0.1915 -0.1915 0.9626
vn -0.1098 0.8264 -0.5522
vn 0.0388 -0.9800 0.1949
vn -0.0388 -0.9800 -0.1949
vn -0.1915 0.1915 -0.9626
vn 0.1915 0.1915 0.9626
vn 0.1098 0.8264 0.5522
vn 0.1632 -0.5481 0.8203
vn 0.3128 -0.8264 0.4681
vn 0.1653 -0.9800 0.1104
vn 0.1104 0.9800 0.1653
vn 0.5453 -0.1915 0.8161
vn 0.4681 0.8264 0.3128
vn 0.4647 0.5481 0.6954
vn 0.8161 0.1915 0.5453
vn 0.1949 0.9800 0.0388
vn 0.9626 -0.1915 0.1915
vn 0.6954 -0.5481 0.4647
vn 0.8203 0.5481 0.1632
vn 0.5522 -0.8264 0.1098
vn 0.1949 -0.9800 -0.0388
vn 0.8161 -0.1915 -0.5453
vn 0.5522 0.8264 -0.1098
vn 0.8203 -0.5481 -0.1632
vn 0.9626 0.1915 -0.1915
vn 0.1653 0.9800 -0.1104
vn 0.4647 -0.5481 -0.6954
vn 0.6954 0.5481 -0.4647
vn 0.4681 -0.8264 -0.3128
vn 0.1104 -0.9800 -0.1653
vn 0.1915 -0.1915 -0.9626
vn 0.3128 0.8264 -0.4681
vn 0.5453 0.1915 -0.8161
vn 0.1632 0.5481 -0.8203
vn 0.1098 -0.8264 -0.5522
vn 0.0388 0.9800 -0.1949
usemtl マテリアル
s off
f 2/1/1 57/2/1 56/3/1
f 6/4/2 61/5/2 60/6/2
f 10/7/3 4/8/3 3/9/3
f 1/10/4 55/11/4 69/12/4
f 14/13/5 54/14/5 7/15/5
f 9/16/6 1/17/6 8/18/6
f 13/19/7 5/20/7 12/21/7
f 20/22/8 14/23/8 13/24/8
f 19/25/9 11/26/9 18/27/9
f 69/28/10 15/29/10 8/30/10
f 16/31/11 10/32/11 9/33/11
f 24/34/12 18/35/12 17/36/12
f 28/37/13 54/38/13 21/39/13
f 33/40/14 25/41/14 32/42/14
f 37/43/15 29/44/15 36/45/15
f 22/46/16 16/47/16 15/48/16
f 27/49/17 19/50/17 26/51/17
f 69/52/18 29/53/18 22/54/18
f 31/55/19 23/56/19 30/57/19
f 35/58/20 27/59/20 34/60/20
f 42/61/21 54/62/21 35/63/21
f 47/64/22 39/65/22 46/66/22
f 40/67/23 34/68/23 33/69/23
f 38/70/24 32/71/24 31/72/24
f 113/73/25 47/74/25 112/75/25
f 69/76/26 43/77/26 36/78/26
f 45/79/27 37/80/27 44/81/27
f 49/82/28 41/83/28 48/84/28
f 5/85/29 58/86/29 4/87/29
f 50/88/30 44/89/30 43/90/30
f 61/91/31 54/92/31 68/93/31
f 49/94/32 114/95/32 54/96/32
f 52/97/33 46/98/33 45/99/33
f 58/100/34 64/101/34 57/102/34
f 56/103/35 62/104/35 55/105/35
f 60/106/36 66/107/36 59/108/36
f 67/109/37 76/110/37 75/111/37
f 76/112/38 54/113/38 83/114/38
f 69/115/39 62/116/39 70/117/39
f 65/118/40 74/119/40 73/120/40
f 71/121/41 77/122/41 70/123/41
f 63/124/42 72/125/42 71/126/42
f 73/127/43 79/128/43 72/129/43
f 69/130/44 77/131/44 84/132/44
f 80/133/45 88/134/45 87/135/45
f 75/136/46 81/137/46 74/138/46
f 78/139/47 86/140/47 85/141/47
f 83/142/48 89/143/48 82/144/48
f 90/145/49 54/146/49 97/147/49
f 94/148/50 102/149/50 101/150/50
f 85/151/51 91/152/51 84/153/51
f 89/154/52 95/155/52 88/156/52
f 87/157/53 93/158/53 86/159/53
f 69/160/54 91/161/54 98/162/54
f 103/163/55 109/164/55 102/165/55
f 92/166/56 100/167/56 99/168/56
f 97/169/57 103/170/57 96/171/57
f 104/172/58 54/173/58 111/174/58
f 108/175/59 112/176/59 53/177/59
f 99/178/60 105/179/60 98/180/60
f 101/181/61 107/182/61 100/183/61
f 107/184/62 51/185/62 106/186/62
f 111/187/63 113/188/63 110/189/63
f 69/190/64 105/191/64 50/192/64
f 2/1/1 3/193/1 57/2/1
f 6/4/2 7/194/2 61/5/2
f 10/7/3 11/195/3 4/8/3
f 9/16/6 2/196/6 1/17/6
f 13/19/7 6/197/7 5/20/7
f 20/22/8 21/198/8 14/23/8
f 19/25/9 12/199/9 11/26/9
f 16/31/11 17/200/11 10/32/11
f 24/34/12 25/201/12 18/35/12
f 33/40/14 26/202/14 25/41/14
f 37/43/15 30/203/15 29/44/15
f 22/46/16 23/204/16 16/47/16
f 27/49/17 20/205/17 19/50/17
f 31/55/19 24/206/19 23/56/19
f 35/58/20 28/207/20 27/59/20
f 47/64/22 40/208/22 39/65/22
f 40/67/23 41/209/23 34/68/23
f 38/70/24 39/210/24 32/71/24
f 113/73/25 48/211/25 47/74/25
f 45/79/27 38/212/27 37/80/27
f 49/82/28 42/213/28 41/83/28
f 5/85/29 59/214/29 58/86/29
f 50/88/30 51/215/30 44/89/30
f 52/97/33 53/216/33 46/98/33
f 58/100/34 65/217/34 64/101/34
f 56/103/35 63/218/35 62/104/35
f 60/106/36 67/219/36 66/107/36
f 67/109/37 68/220/37 76/110/37
f 65/118/40 66/221/40 74/119/40
f 71/121/41 78/222/41 77/122/41
f 63/124/42 64/223/42 72/125/42
f 73/127/43 80/224/43 79/128/43
f 80/133/45 81/225/45 88/134/45
f 75/136/46 82/226/46 81/137/46
f 78/139/47 79/227/47 86/140/47
f 83/142/48 90/228/48 89/143/48
f 94/148/50 95/229/50 102/149/50
f 85/151/51 92/230/51 91/152/51
f 89/154/52 96/231/52 95/155/52
f 87/157/53 94/232/53 93/158/53
f 103/163/55 110/233/55 109/164/55
f 92/166/56 93/234/56 100/167/56
f 97/169/57 104/235/57 103/170/57
f 108/175/59 109/236/59 112/176/59
f 99/178/60 106/237/60 105/179/60
f 101/181/61 108/238/61 107/182/61
f 107/184/62 52/239/62 51/185/62
f 111/187/63 114/240/63 113/188/63
